<?xml version="1.0" encoding="UTF-8"?>
<svg version="1.1" xmlns="http://www.w3.org/2000/svg" width="500" height="500">
<path d="M0 0 C10.64458992 8.94199518 19.73674625 18.38642981 27.92626953 29.61816406 C28.89113281 30.89240234 28.89113281 30.89240234 29.87548828 32.19238281 C34.28546585 38.18797029 37.71985603 44.60528086 41.12939453 51.20019531 C44.67258275 58.06449431 44.67258275 58.06449431 49.92626953 63.61816406 C52.54839704 64.34569142 52.54839704 64.34569142 55.42626953 64.55566406 C69.52317408 66.55971975 81.85059239 73.99220523 91.00830078 84.86816406 C96.5588575 92.82659977 102.20831019 102.79586919 102.92626953 112.61816406 C103.01779297 113.86984375 103.10931641 115.12152344 103.20361328 116.41113281 C103.99583432 133.0669105 98.51939633 146.90576359 87.86376953 159.74316406 C78.68458253 169.52199645 66.36622452 175.71912073 52.98876953 176.99316406 C48.74446249 177.85934917 46.58923797 180.38043202 43.92626953 183.61816406 C42.39999238 186.09133837 41.1896323 188.66198549 39.98876953 191.30566406 C34.60894596 202.53966123 28.08926954 212.19029025 19.92626953 221.61816406 C19.28383301 222.36332275 19.28383301 222.36332275 18.62841797 223.12353516 C12.29484175 230.41849913 5.63754475 236.74921068 -2.07373047 242.61816406 C-3.34796875 243.61589844 -3.34796875 243.61589844 -4.64794922 244.63378906 C-37.95846292 269.92787122 -80.56434874 279.4629459 -121.79589844 273.84936523 C-125.26540236 273.2581475 -128.66489163 272.49028521 -132.07373047 271.61816406 C-132.84330078 271.43012207 -133.61287109 271.24208008 -134.40576172 271.04833984 C-151.98599344 266.64276742 -169.33852601 259.27039391 -184.07373047 248.61816406 C-185.09208984 247.88210938 -186.11044922 247.14605469 -187.15966797 246.38769531 C-199.21220181 237.47451836 -209.99828425 227.59150612 -219.07373047 215.61816406 C-219.73759766 214.76996094 -220.40146484 213.92175781 -221.08544922 213.04785156 C-229.32972321 202.19586026 -235.71953625 190.12214834 -241.07373047 177.61816406 C-241.70239014 177.61405518 -242.3310498 177.60994629 -242.97875977 177.60571289 C-262.02841031 177.38791299 -277.27646881 174.88095379 -291.82373047 161.36816406 C-303.68022671 148.60399347 -308.66695998 132.94341604 -308.35107422 115.79003906 C-307.66854544 100.97135443 -299.6120403 87.60991649 -289.07373047 77.61816406 C-280.31146017 70.23713834 -269.43919927 64.77257268 -257.87060547 64.30175781 C-256.89091797 64.25986328 -255.91123047 64.21796875 -254.90185547 64.17480469 C-253.88607422 64.13548828 -252.87029297 64.09617187 -251.82373047 64.05566406 C-250.79248047 64.01248047 -249.76123047 63.96929687 -248.69873047 63.92480469 C-246.15719177 63.81890724 -243.61555851 63.71682963 -241.07373047 63.61816406 C-240.71976196 62.84122192 -240.71976196 62.84122192 -240.35864258 62.04858398 C-221.5865762 21.0611621 -191.83726102 -9.00383406 -149.43310547 -25.20214844 C-145.03388673 -26.79720378 -140.57961304 -28.12512023 -136.07373047 -29.38183594 C-135.37183594 -29.59066406 -134.66994141 -29.79949219 -133.94677734 -30.01464844 C-88.87234174 -43.02243077 -35.69658961 -29.30113963 0 0 Z " fill="#4385F3" transform="translate(347.07373046875,129.3818359375)"/>
<path d="M0 0 C1.16015625 -0.020625 2.3203125 -0.04125 3.515625 -0.0625 C14.32953756 -0.1108844 24.02823774 1.99427582 33.875 6.4375 C34.88228149 6.8859729 34.88228149 6.8859729 35.90991211 7.34350586 C45.64314965 11.82215965 56.82269835 18.17154752 62.875 27.25 C65.35162891 27.87321566 65.35162891 27.87321566 68.25 28.125 C82.39886783 30.22112857 94.74522985 37.55979875 103.95703125 48.5 C109.50758797 56.45843571 115.15704065 66.42770512 115.875 76.25 C115.96652344 77.50167969 116.05804688 78.75335938 116.15234375 80.04296875 C116.94456479 96.69874644 111.46812679 110.53759953 100.8125 123.375 C91.87796473 132.89319838 79.32576188 139.77746191 66.125 140.4375 C61.57146193 141.57588452 59.66907191 144.33515789 56.515625 147.703125 C48.54137729 155.39426333 38.26275699 160.65525458 27.875 164.25 C26.32425781 164.8378125 26.32425781 164.8378125 24.7421875 165.4375 C4.16208615 172.18814828 -18.09353678 169.40120672 -37.4375 160.5 C-59.26577099 148.78072336 -74.03426709 130.69669016 -81.125 107.25 C-84.05726578 97.12035458 -84.54768219 87.68357614 -84.125 77.25 C-84.11339844 75.96222656 -84.11339844 75.96222656 -84.1015625 74.6484375 C-83.26673663 55.96118143 -72.05526219 35.29314013 -58.6015625 22.83984375 C-41.58309547 7.89779256 -22.69450445 0.09888673 0 0 Z " fill="#F3B400" transform="translate(334.125,165.75)"/>
<path d="M0 0 C1.33677968 0.44149912 2.67403812 0.8815507 4.01171875 1.3203125 C16.71642366 5.64310643 29.01968875 11.89098576 39 21 C39 21.33 39 21.66 39 22 C38.25878906 22.12375 37.51757812 22.2475 36.75390625 22.375 C21.51528603 25.35930751 6.19758658 32.44213929 -4.6953125 43.76171875 C-6 45 -6 45 -8 45 C-8.25523437 45.57234375 -8.51046875 46.1446875 -8.7734375 46.734375 C-10.13157685 49.24304003 -11.7439643 51.10666849 -13.625 53.25 C-23.68313873 65.66722945 -30.43416819 81.99827654 -31 98 C-31.06316406 99.16917969 -31.12632812 100.33835937 -31.19140625 101.54296875 C-31.88570146 124.23074442 -24.32645875 144.64806681 -9.50390625 161.90625 C3.76496623 175.94404673 19.38415068 183.54703936 38 188 C35.38966701 195.83099898 23.25352493 200.45108518 16.14453125 204.07421875 C1.72427173 211.03920062 -13.20961784 214.36805767 -29.17504883 214.31567383 C-31.16688509 214.31253251 -33.15870307 214.33678786 -35.15039062 214.36132812 C-60.80698561 214.37399805 -84.68027997 204.76106229 -104 188 C-105.06203276 187.16607128 -106.12447167 186.33265927 -107.1875 185.5 C-123.5239814 170.9786832 -133.37064107 150.77189807 -139 130 C-139.28254639 128.97519531 -139.28254639 128.97519531 -139.57080078 127.9296875 C-140.55599183 124.22154991 -141.24496114 120.83875644 -141.125 117 C-141.10695312 116.236875 -141.08890625 115.47375 -141.0703125 114.6875 C-141.04710937 114.130625 -141.02390625 113.57375 -141 113 C-139.28013242 115.57980137 -138.17083119 117.87161481 -136.9375 120.6875 C-132.92938327 128.71545311 -126.36157751 134.4270081 -117.859375 137.37109375 C-106.24043752 139.92662508 -96.2063713 137.97199435 -86.13671875 131.87109375 C-80.08948519 127.38645284 -75.90520613 120.16637167 -74 113 C-73.21033771 104.13925455 -73.05167816 95.71628937 -78 88 C-78.4125 87.30519531 -78.825 86.61039062 -79.25 85.89453125 C-84.11878551 78.52219409 -91.57725901 74.30473012 -100 72 C-111.71114757 70.88093479 -120.6607352 72.15870827 -129.8125 79.6875 C-133.98013703 83.62687422 -136.58520824 87.84068587 -139 93 C-139.66482568 94.33425224 -140.33093418 95.66786895 -141 97 C-142.48147583 76.25933831 -131.36430132 53.24269303 -118.75 37.3125 C-117.1930105 35.51846019 -115.60766337 33.74877489 -114 32 C-113.53110352 31.4834082 -113.06220703 30.96681641 -112.57910156 30.43457031 C-85.25622671 0.63583625 -38.96566371 -14.08186724 0 0 Z " fill="#FEFEFE" transform="translate(282,145)"/>
<path d="M0 0 C7.85157598 4.48322617 13.28757106 10.86792085 16.73046875 19.26953125 C18.91067982 27.44283392 19.02500862 37.93384206 14.90234375 45.4609375 C14.46792969 46.12609375 14.03351563 46.79125 13.5859375 47.4765625 C13.09996094 48.24484375 12.61398438 49.013125 12.11328125 49.8046875 C6.75673904 57.45327259 -0.43846439 62.0124542 -9.4140625 64.4765625 C-19.88958887 65.47755724 -28.45600156 64.77863298 -37.0703125 58.55859375 C-43.91091686 52.87485631 -47.62541494 46.84250518 -50.4140625 38.4765625 C-51.24261271 26.51012415 -50.62443164 17.22277348 -42.6640625 7.6640625 C-31.15540162 -4.44356215 -15.22706468 -7.30735812 0 0 Z " fill="#DB4538" transform="translate(191.4140625,219.5234375)"/>
<path d="M0 0 C5.40371429 -0.2799852 9.74926803 0.56806517 14.75 2.5 C15.44738281 2.76772217 16.14476562 3.03544434 16.86328125 3.3112793 C32.99682395 9.82746269 42.42171954 21.73506918 49.24902344 37.22314453 C50.78839576 40.86539152 51.7115184 44.0533262 52 48 C52.09152344 49.25167969 52.18304688 50.50335938 52.27734375 51.79296875 C53.06956479 68.44874644 47.59312679 82.28759953 36.9375 95.125 C28.59711266 104.01023676 17.92734401 109.61766585 6 112 C4.00076938 112.05546998 1.99872191 112.07148931 0 112 C0.36351562 111.46632813 0.72703125 110.93265625 1.1015625 110.3828125 C2.75370055 107.93425918 4.37865144 105.46903992 6 103 C6.75410156 101.88044922 6.75410156 101.88044922 7.5234375 100.73828125 C19.51249995 82.05691146 22.66109968 59.94801298 18.9375 38.25 C15.72516541 24.47431398 9.29789145 13.28940597 1 2 C0.67 1.34 0.34 0.68 0 0 Z " fill="#119D58" transform="translate(398,194)"/>
<path d="M0 0 C0.90105469 0.00902344 1.80210938 0.01804688 2.73046875 0.02734375 C3.41753906 0.03894531 4.10460937 0.05054688 4.8125 0.0625 C4.7403125 0.84625 4.668125 1.63 4.59375 2.4375 C3.82450814 12.3521729 3.70013955 22.24821597 3.6875 32.1875 C3.68500244 32.86474121 3.68250488 33.54198242 3.67993164 34.23974609 C3.65176885 43.56951617 4.01703816 52.76882395 4.8125 62.0625 C-4.22350722 62.64546821 -11.26767189 60.68123523 -18.4375 55 C-24.93531007 48.71350083 -28.43619822 42.3387727 -28.78710938 33.25708008 C-28.79548828 32.47099365 -28.80386719 31.68490723 -28.8125 30.875 C-28.82345703 30.12694092 -28.83441406 29.37888184 -28.84570312 28.6081543 C-28.64494967 20.76232872 -25.21233399 14.50739161 -20.03515625 8.734375 C-14.30308271 3.54763615 -7.77818176 -0.10101535 0 0 Z " fill="#FCFDFE" transform="translate(93.1875,218.9375)"/>
</svg>
